<?xml version="1.0" encoding="UTF-8" standalone="no"?>
<svg
   version="1.1"
   viewBox="0 0 99.999996 99.999999"
   width="100"
   height="100"
   id="svg4"
   sodipodi:docname="Arrow.svg"
   inkscape:version="1.4 (e7c3feb100, 2024-10-09)"
   xmlns:inkscape="http://www.inkscape.org/namespaces/inkscape"
   xmlns:sodipodi="http://sodipodi.sourceforge.net/DTD/sodipodi-0.dtd"
   xmlns="http://www.w3.org/2000/svg"
   xmlns:svg="http://www.w3.org/2000/svg">
  <sodipodi:namedview
     id="namedview4"
     pagecolor="#ffffff"
     bordercolor="#000000"
     borderopacity="0.25"
     inkscape:showpageshadow="2"
     inkscape:pageopacity="0.0"
     inkscape:pagecheckerboard="0"
     inkscape:deskcolor="#d1d1d1"
     inkscape:zoom="8"
     inkscape:cx="59.6875"
     inkscape:cy="31.75"
     inkscape:window-width="1904"
     inkscape:window-height="995"
     inkscape:window-x="26"
     inkscape:window-y="23"
     inkscape:window-maximized="0"
     inkscape:current-layer="g4" />
  <!-- svg-source:excalidraw -->
  <metadata
     id="metadata1" />
  <defs
     id="defs1">
    <style
       class="style-fonts"
       id="style1" />
  </defs>
  <g
     stroke-linecap="round"
     id="g4">
    <g
       transform="translate(10.221105,161.12171)"
       id="g1">
      <path
         d="m 0.81,-124.955 c 7.8307583,45.8215 5.265249,60.448638 53.41,47.115 37.95,-10.41 12.668893,-35.90146 22.988893,-73.08146 M -0.22,-125.785 c 10.859277,47.103741 5.47372,59.078662 53.78,46.205 36.32,-12.515 13.338893,-33.28146 23.598893,-70.17146"
         stroke="#1e1e1e"
         stroke-width="2"
         fill="none"
         id="path1"
         sodipodi:nodetypes="cccccc" />
    </g>
    <g
       transform="translate(10.221105,161.12171)"
       id="g2">
      <path
         d="m 81.44746,-133.02753 c -0.3,-8.51 -2.67,-9.77 -3.03,-20.42 m 3.03,20.42 c -0.75,-10.35 -2.03,-15.97 -3.03,-20.42"
         stroke="#1e1e1e"
         stroke-width="2"
         fill="none"
         id="path2"
         sodipodi:nodetypes="cccc" />
    </g>
    <g
       transform="translate(10.221105,161.12171)"
       id="g3">
      <path
         d="m 68.83496,-135.83253 c 4.58,-7.7 2.9225,-8.405 9.5825,-17.615 m -9.5825,17.615 c 5.89,-9.11 7.0925,-13.835 9.5825,-17.615"
         stroke="#1e1e1e"
         stroke-width="2"
         fill="none"
         id="path3"
         sodipodi:nodetypes="cccc" />
    </g>
  </g>
  <mask
     id="mask4" />
</svg>
